<svg width="57" height="57" fill="none" xmlns="http://www.w3.org/2000/svg"><path opacity=".1" fill-rule="evenodd" clip-rule="evenodd" d="M24.542.792h7.916c13.117 0 23.75 10.633 23.75 23.75v7.916c0 13.117-10.633 23.75-23.75 23.75h-7.916c-13.117 0-23.75-10.633-23.75-23.75v-7.916c0-13.117 10.633-23.75 23.75-23.75z" fill="url(#paint0_linear)"/><path fill-rule="evenodd" clip-rule="evenodd" d="M42.39 25.221a.833.833 0 01-.023.246l-1.806 7.257a.823.823 0 01-.793.624l-10.84.055H18.082a.822.822 0 01-.797-.625l-1.807-7.285a.828.828 0 01-.022-.252 1.733 1.733 0 01.518-3.383 1.733 1.733 0 011.095 3.07l2.262 2.287a3.08 3.08 0 002.176.91 3.08 3.08 0 002.451-1.224l3.718-4.946a1.73 1.73 0 011.219-2.956 1.73 1.73 0 011.245 2.926l.004.004 3.69 4.96a3.078 3.078 0 002.457 1.236c.819 0 1.59-.32 2.168-.901l2.277-2.287a1.73 1.73 0 011.08-3.08 1.73 1.73 0 01.572 3.364zm-2.006 10.766a.823.823 0 00-.82-.825H18.32a.823.823 0 00-.822.825v1.979c0 .456.368.825.822.825h21.243a.823.823 0 00.821-.825v-1.98z" fill="#FE5868"/><defs><linearGradient id="paint0_linear" x1="32.785" y1="89.785" x2="89.785" y2="24.215" gradientUnits="userSpaceOnUse"><stop stop-color="#FF5858"/><stop offset="1" stop-color="#F857A6"/></linearGradient></defs></svg>