<svg width="82" height="82" fill="none" xmlns="http://www.w3.org/2000/svg"><path d="M54 0H28C12.536 0 0 12.536 0 28v26c0 15.464 12.536 28 28 28h26c15.464 0 28-12.536 28-28V28C82 12.536 69.464 0 54 0z" fill="#FFF6D3"/><path d="M45.534 46.778a.961.961 0 110-1.924h3.538a6.014 6.014 0 004.207-1.694 5.681 5.681 0 000-8.187 6.014 6.014 0 00-4.207-1.694 6.215 6.215 0 00-1.211.115.99.99 0 01-1.116-.59 7.743 7.743 0 00-2.906-3.551 8.058 8.058 0 00-10.014.915 7.54 7.54 0 00-2.308 5.421v.116a.972.972 0 01-.977.966h-.055l-.169-.008h-.128a4.257 4.257 0 00-2.977 1.2 4.02 4.02 0 000 5.793 4.258 4.258 0 002.977 1.2h4.752a.962.962 0 110 1.924h-4.752a6.26 6.26 0 01-4.376-1.763 5.9 5.9 0 010-8.513 6.247 6.247 0 013.76-1.738 9.454 9.454 0 012.853-5.96 10.064 10.064 0 0112.524-1.14 9.712 9.712 0 013.313 3.729 8.021 8.021 0 016.406 2.217 7.56 7.56 0 010 10.9 8.021 8.021 0 01-5.606 2.259l-3.528.007z" fill="#333"/><path d="M39.511 36.117a.99.99 0 011.978 0v18.921a.989.989 0 01-1.978 0v-18.92z" fill="#333"/><path d="M47.302 40.798a.94.94 0 010 1.356 1.007 1.007 0 01-1.395 0l-5.4-5.3-5.4 5.3a1.007 1.007 0 01-1.395 0 .94.94 0 010-1.356l6.1-5.986a1.007 1.007 0 011.395 0l6.1 5.986h-.005z" fill="#333"/><path d="M39.511 55.038V37.821l-4.414 4.33a1.007 1.007 0 01-1.4 0 .942.942 0 010-1.356l6.1-5.986a1.008 1.008 0 011.4 0l6.1 5.986a.942.942 0 010 1.356 1.006 1.006 0 01-1.394 0l-4.414-4.33v17.217a.99.99 0 01-1.978 0zm6.023-8.26a.962.962 0 110-1.924h3.537a6.013 6.013 0 004.208-1.695 5.682 5.682 0 000-8.187 6.016 6.016 0 00-4.208-1.694 6.208 6.208 0 00-1.21.115.993.993 0 01-1.116-.59 7.744 7.744 0 00-2.906-3.552 8.059 8.059 0 00-10.013.915 7.536 7.536 0 00-2.308 5.42v.118a.969.969 0 01-.977.966h-.055l-.168-.007h-.128a4.253 4.253 0 00-2.977 1.2 4.013 4.013 0 000 5.792 4.255 4.255 0 002.977 1.2h4.752a.962.962 0 010 1.924H30.19a6.263 6.263 0 01-4.377-1.763 5.907 5.907 0 010-8.513 6.25 6.25 0 013.765-1.734 9.455 9.455 0 012.852-5.96 10.064 10.064 0 0112.524-1.14 9.708 9.708 0 013.313 3.73 8.023 8.023 0 016.407 2.217 7.56 7.56 0 010 10.9 8.023 8.023 0 01-5.607 2.259l-3.533.003z" fill="#D6AB00"/></svg>