<svg width="110" height="110" fill="none" xmlns="http://www.w3.org/2000/svg"><path d="M75 0H35C15.67 0 0 15.67 0 35v40c0 19.33 15.67 35 35 35h40c19.33 0 35-15.67 35-35V35c0-19.33-15.67-35-35-35z" fill="#E4FFEE"/><path d="M79.479 66.589l-.12-3.735a2.37 2.37 0 00-2.442-2.3l-.507.015a21.282 21.282 0 00-6.164-10.686l-.032-.03a21.362 21.362 0 00-6.49-4.206l6.55-.2a4.4 4.4 0 008.5-1.732 4.415 4.415 0 00-2.84-3.988 4.352 4.352 0 00-1.697-.277 4.4 4.4 0 00-4.058 3.045l-11.791.353-.013-.4a2.369 2.369 0 00-2.443-2.3l-3.774.105a2.357 2.357 0 00-2.292 2.438l.013.4-11.791.354a4.4 4.4 0 00-8.5 1.732 4.4 4.4 0 008.586 1.212l6.549-.2a21.45 21.45 0 00-11.712 15.653l-.63.019a2.377 2.377 0 00-2.3 2.446l.119 3.75a2.367 2.367 0 002.443 2.3l3.751-.112a2.378 2.378 0 002.3-2.446l-.12-3.751a2.367 2.367 0 00-2.442-2.3h-.108a18.527 18.527 0 0114.207-14.366 2.365 2.365 0 002.215 1.35l3.751-.112a2.37 2.37 0 002.122-1.48 18.6 18.6 0 0115.093 13.488l-.231.007a2.378 2.378 0 00-2.3 2.446l.119 3.75a2.369 2.369 0 002.443 2.3l3.75-.112a2.354 2.354 0 002.286-2.43zm-43.753.758l-2.629.08-.084-2.63 2.629-.079.084 2.63zm38.583-24.96a1.456 1.456 0 11-1.318.94 1.472 1.472 0 011.318-.94zm-40.283 4.138a1.456 1.456 0 11-.08-2.913 1.456 1.456 0 01.079 2.914zm18.873-.719l-.084-2.629 2.629-.079.042 1.307.042 1.307-2.629.094zm21.006 20.388l-.084-2.629 2.629-.078.084 2.629-2.629.078z" fill="#40975F"/></svg>