<svg width="82" height="82" fill="none" xmlns="http://www.w3.org/2000/svg">
  <path
    d="M54 0H28C12.536 0 0 12.536 0 28v26c0 15.464 12.536 28 28 28h26c15.464 0 28-12.536 28-28V28C82 12.536 69.464 0 54 0z"
    fill="#F4F4FF" />
  <path
    d="M46.684 59.618l-3.316-3.38-3.317 3.38a1.258 1.258 0 01-1.8 0 1.317 1.317 0 010-1.84l3.317-3.38-3.317-3.379a1.317 1.317 0 010-1.84 1.259 1.259 0 011.8 0l3.317 3.38 3.316-3.38a1.258 1.258 0 011.8 0 1.32 1.32 0 010 1.84l-3.316 3.379 3.316 3.38a1.318 1.318 0 010 1.84 1.258 1.258 0 01-1.8 0zM22.119 53.78a3.772 3.772 0 113.77 3.84 3.806 3.806 0 01-3.769-3.84h-.001zm3.772-5.98c-.26 0-.52.018-.778.054a25.074 25.074 0 013.91-8.1 22.212 22.212 0 0115.475-8.99l-2.729-2.418a1.316 1.316 0 01.265-2.145 1.26 1.26 0 011.409.182l5.145 4.56a1.318 1.318 0 01.126 1.835l-4.473 5.245a1.257 1.257 0 01-1.8.128 1.317 1.317 0 01-.126-1.834l2.543-2.982a19.5 19.5 0 00-13.727 7.89 22.76 22.76 0 00-3.427 6.869 5.74 5.74 0 00-1.812-.294h-.001zm27.568-16.13a3.77 3.77 0 113.77 3.84 3.806 3.806 0 01-3.769-3.84h-.001zm-23.648 2.15l-3.317-3.381-3.316 3.38a1.26 1.26 0 01-1.8 0 1.318 1.318 0 010-1.84l3.317-3.38-3.317-3.379a1.318 1.318 0 010-1.84 1.258 1.258 0 011.8 0l3.316 3.38 3.317-3.38a1.258 1.258 0 011.8 0 1.32 1.32 0 010 1.84l-3.317 3.38 3.316 3.379a1.318 1.318 0 010 1.84 1.259 1.259 0 01-1.8 0h.001z"
    fill="#5856D6" />
</svg>