<svg width="123" height="24" fill="none" xmlns="http://www.w3.org/2000/svg">
  <path
    d="M14.268 4.51L7.134 9.02l7.134 4.51-7.134 4.51L0 13.505l7.134-4.51L0 4.51 7.134 0l7.134 4.51zm-7.17 14.98l7.133-4.51 7.134 4.51L14.231 24l-7.134-4.51zm7.17-5.985l7.134-4.51-7.134-4.485L21.365 0 28.5 4.51l-7.134 4.51 7.134 4.51-7.134 4.51-7.097-4.535zM34.096 4.51h5.768c3.678 0 6.716 2.109 6.716 6.923v1.012c0 4.851-2.841 7.033-6.605 7.033h-5.88V4.51zm3.222 2.718v9.52h2.473c2.09 0 3.493-1.353 3.493-4.364v-.792c0-3.011-1.476-4.364-3.604-4.364h-2.362zm10.972.146h2.583l.418 2.816c.492-1.914 1.747-2.938 4.022-2.938h.8v3.23h-1.329c-2.62 0-3.26.902-3.26 3.462v5.57H48.34V7.375h-.05zm8.462 6.314v-.341c0-4.059 2.62-6.277 6.187-6.277 3.64 0 6.187 2.218 6.187 6.277v.341c0 3.986-2.472 6.131-6.187 6.131-3.948-.036-6.187-2.133-6.187-6.13zm9.114-.036v-.305c0-2.255-1.144-3.608-2.964-3.608-1.783 0-2.964 1.243-2.964 3.608v.305c0 2.182 1.144 3.425 2.964 3.425 1.82-.037 2.964-1.244 2.964-3.425zM70.8 7.374h2.656l.308 2.292c.64-1.536 2.005-2.596 4.022-2.596 3.112 0 5.166 2.218 5.166 6.326v.341c0 3.986-2.275 6.094-5.166 6.094-1.931 0-3.26-.865-3.911-2.255v6.131h-3.112L70.8 7.374zm8.917 6.278v-.268c0-2.414-1.254-3.608-2.927-3.608-1.784 0-2.965 1.353-2.965 3.607v.232c0 2.145 1.144 3.498 2.928 3.498 1.833-.036 2.964-1.194 2.964-3.461zm7.946 3.62l-.27 2.218H84.66V3.315h3.112V9.52c.689-1.585 2.054-2.45 3.985-2.45 2.927.036 5.092 2.035 5.092 6.057v.378c0 4.023-2.054 6.326-5.166 6.326-2.054-.048-3.382-.987-4.022-2.56zm5.916-3.767v-.304c0-2.219-1.217-3.462-2.927-3.462-1.747 0-2.964 1.39-2.964 3.498v.268c0 2.255 1.18 3.572 2.927 3.572 1.87 0 2.964-1.158 2.964-3.572zm4.637.183v-.341c0-4.059 2.62-6.277 6.187-6.277 3.641 0 6.187 2.218 6.187 6.277v.341c0 3.986-2.509 6.131-6.187 6.131-3.948-.036-6.187-2.133-6.187-6.13zm9.139-.036v-.305c0-2.255-1.144-3.608-2.964-3.608-1.783 0-2.964 1.243-2.964 3.608v.305c0 2.182 1.144 3.425 2.964 3.425 1.833-.037 2.964-1.244 2.964-3.425zm7.405-.451l-4.293-5.827h3.678l2.472 3.645 2.509-3.645h3.641l-4.354 5.79L123 19.49h-3.604l-2.804-4.022-2.731 4.022h-3.764l4.662-6.29z"
    fill="#B7BEC9" />
</svg>