<svg width="82" height="82" fill="none" xmlns="http://www.w3.org/2000/svg"><path d="M54 0H28C12.536 0 0 12.536 0 28v26c0 15.464 12.536 28 28 28h26c15.464 0 28-12.536 28-28V28C82 12.536 69.464 0 54 0z" fill="#EAF9FF"/><path d="M30.653 61a.923.923 0 01-.919-.926v-2.19a2.77 2.77 0 012.757-2.778H34.2v-4.247a.923.923 0 01.7-.9h.012a4.226 4.226 0 003.241-4.524 11.606 11.606 0 01-5.322-5.059 19.688 19.688 0 01-1.24-2.506 14.975 14.975 0 01-7.555-10.694 2.88 2.88 0 012.835-3.335h2.775v-.874a1.956 1.956 0 011.947-1.962h18.814a1.957 1.957 0 011.948 1.962v.874h2.774a2.878 2.878 0 012.835 3.335 14.975 14.975 0 01-7.553 10.694 19.79 19.79 0 01-1.242 2.506 11.68 11.68 0 01-5.233 5.021 4.223 4.223 0 003.238 4.562h.011a.923.923 0 01.707.9v4.247h1.7a2.77 2.77 0 012.758 2.777v2.191a.923.923 0 01-.92.926H30.653zm.92-3.118v1.266h18.943v-1.266a.923.923 0 00-.919-.925H32.491a.923.923 0 00-.919.924v.001zm4.461-2.777h10.021v-3.321H36.034v3.321zm3.03-5.99a6.181 6.181 0 01-.62.817h5.209a6.118 6.118 0 01-1.579-4.008A7.096 7.096 0 0141 46c-.33 0-.66-.023-.988-.068a6.053 6.053 0 01-.948 3.182v.001zm-7.58-26.153v4.43a24.067 24.067 0 002.927 12.034c1.8 3.05 4.139 4.729 6.589 4.729s4.79-1.678 6.589-4.729a24.065 24.065 0 002.927-12.035v-4.43a.109.109 0 00-.068-.102.11.11 0 00-.042-.008H31.593a.11.11 0 00-.109.11zm20.87 4.43a29.28 29.28 0 01-.98 7.623 13.13 13.13 0 004.774-8.141 1 1 0 00-.229-.817 1.035 1.035 0 00-.792-.37h-2.774l.001 1.704zm-26.275-1.336a1 1 0 00-.229.818 13.13 13.13 0 004.775 8.14 29.28 29.28 0 01-.979-7.623v-1.7h-2.775a1.035 1.035 0 00-.791.364h-.001zm11.472 11.056a.927.927 0 01-.365-.905l.473-2.783-2.007-1.97a.93.93 0 01.51-1.58l2.773-.406 1.24-2.531a.915.915 0 011.649 0l1.239 2.531 2.773.406a.927.927 0 01.509 1.58l-2.006 1.97.473 2.783a.928.928 0 01-.365.905.917.917 0 01-.967.071L41 35.87l-2.48 1.314a.914.914 0 01-.967-.07h-.002zm3.875-3.11l1.26.668-.241-1.413a.93.93 0 01.265-.819l1.02-1-1.408-.206a.917.917 0 01-.692-.506L41 29.44l-.63 1.286a.917.917 0 01-.692.506l-1.409.206 1.02 1a.93.93 0 01.264.82l-.24 1.412 1.26-.667a.913.913 0 01.855 0h-.002z" fill="#3DABDD"/></svg>