<svg width="82" height="82" fill="none" xmlns="http://www.w3.org/2000/svg"><path opacity=".102" d="M54 0H28C12.536 0 0 12.536 0 28v26c0 15.464 12.536 28 28 28h26c15.464 0 28-12.536 28-28V28C82 12.536 69.464 0 54 0z" fill="#FF4361"/><path d="M49.229 51.456a6.032 6.032 0 00-.324-2.914 7.301 7.301 0 00-2.851-2.687c-.357-.235-.585-.378-.819-.525-1.537-.969-3.152-1.987-3.734-3.42-.58 1.432-2.2 2.45-3.732 3.419-.308.195-.611.385-.821.523a7.247 7.247 0 00-2.845 2.709 6.074 6.074 0 00-.328 2.893l15.454.002zm1.467-3.741a8.974 8.974 0 01.43 4.733.988.988 0 01-.989.986H32.862a.985.985 0 01-.981-.9 9.16 9.16 0 01.429-4.789c.587-1.284 1.666-2.294 3.557-3.537.327-.215.589-.381.851-.545 1.468-.926 3.029-1.911 3.029-2.9 0-.989-1.561-1.971-3.029-2.9-.261-.164-.523-.33-.851-.545-1.963-1.29-3.055-2.391-3.626-3.772a10.163 10.163 0 01-.365-4.947.99.99 0 01.988-.978h17.27a.985.985 0 01.981.892 10.3 10.3 0 01-.357 5.028c-.57 1.38-1.663 2.482-3.626 3.772-.333.219-.59.38-.852.546-1.467.925-3.029 1.91-3.029 2.9s1.563 1.971 3.031 2.9c.335.211.67.423.849.541 1.893 1.244 2.976 2.233 3.564 3.508l.001.007zm-9.2-8.1c.581-1.431 2.2-2.449 3.733-3.418.307-.194.615-.387.82-.522a6.933 6.933 0 002.884-2.876c.34-1.03.441-2.125.293-3.2H33.77a7.095 7.095 0 00.294 3.2 6.935 6.935 0 002.883 2.876c.21.137.513.329.821.522 1.536.968 3.151 1.987 3.732 3.418h-.004z" fill="#333"/><path d="M30.773 24h21.45a2.765 2.765 0 011.955.814 2.772 2.772 0 01.813 1.96 2.768 2.768 0 01-.816 1.958 2.767 2.767 0 01-1.96.815H30.773a2.765 2.765 0 01-1.959-.815 2.77 2.77 0 01-.815-1.958 2.767 2.767 0 01.813-1.956 2.761 2.761 0 011.955-.814l.006-.004zm21.454 1.978H30.773a.8.8 0 00-.562.231.8.8 0 000 1.122.8.8 0 00.562.234h21.45a.791.791 0 00.792-.795.795.795 0 00-.798-.794l.01.002zM30.773 51.456h21.45a2.768 2.768 0 011.96.814 2.769 2.769 0 01.816 1.957 2.78 2.78 0 01-2.773 2.774H30.773a2.765 2.765 0 01-1.959-.815 2.765 2.765 0 01-.813-1.956 2.77 2.77 0 01.815-1.957 2.77 2.77 0 011.959-.814l-.002-.003zm21.454 1.978H30.773a.8.8 0 00-.733.492.8.8 0 00.735 1.101h21.448a.8.8 0 00.569-1.36.793.793 0 00-.561-.235l-.004.002z" fill="#333"/><path d="M30.774 57a2.77 2.77 0 01-1.96-.814 2.763 2.763 0 01.901-4.516 2.76 2.76 0 011.061-.212H31.8a7.634 7.634 0 01.509-3.712c.587-1.283 1.666-2.294 3.557-3.537.327-.215.589-.381.85-.544 1.468-.926 3.029-1.912 3.029-2.9s-1.562-1.971-3.029-2.9a40 40 0 01-.85-.544c-1.963-1.29-3.055-2.39-3.626-3.772a8.682 8.682 0 01-.443-4h-1.025a2.767 2.767 0 01-1.96-.814 2.758 2.758 0 010-3.915 2.758 2.758 0 011.956-.814h21.453a2.761 2.761 0 011.956.814 2.763 2.763 0 010 3.918 2.766 2.766 0 01-1.96.814H51.2a8.683 8.683 0 01-.442 4c-.571 1.381-1.663 2.482-3.626 3.772-.332.22-.59.38-.851.545-1.467.925-3.029 1.911-3.029 2.9 0 .989 1.563 1.97 3.032 2.9.334.21.67.423.849.541 1.893 1.245 2.976 2.234 3.564 3.508a7.567 7.567 0 01.5 3.74h1.025c.735 0 1.44.294 1.96.814a2.766 2.766 0 01.002 3.918c-.52.52-1.225.813-1.96.814L30.774 57zm0-1.979h21.453a.8.8 0 00.74-1.098.793.793 0 00-.732-.493H30.774a.8.8 0 00-.734.492.8.8 0 00.174.867c.149.148.35.232.56.232zm6.995-9.695a57.62 57.62 0 00-.821.523 7.248 7.248 0 00-2.845 2.71 6.062 6.062 0 00-.328 2.893H49.23a6.02 6.02 0 00-.325-2.914 7.289 7.289 0 00-2.851-2.687c-.357-.235-.585-.378-.818-.526-1.538-.969-3.153-1.987-3.734-3.419-.583 1.433-2.202 2.452-3.733 3.42zm-3.7-12.527a6.942 6.942 0 002.884 2.876c.21.137.513.329.821.522 1.536.969 3.151 1.987 3.731 3.418.581-1.431 2.2-2.449 3.732-3.418.307-.193.615-.387.82-.522a6.934 6.934 0 002.884-2.876 7.13 7.13 0 00.293-3.2H33.771a7.108 7.108 0 00.293 3.201h.005zm-3.853-6.591a.8.8 0 000 1.123.8.8 0 00.563.234h21.453a.793.793 0 00.795-.796.794.794 0 00-.796-.794H30.774a.8.8 0 00-.563.233h.005z" fill="#F55767"/></svg>