<svg width="110" height="110" fill="none" xmlns="http://www.w3.org/2000/svg"><path opacity=".102" d="M75 0H35C15.67 0 0 15.67 0 35v40c0 19.33 15.67 35 35 35h40c19.33 0 35-15.67 35-35V35c0-19.33-15.67-35-35-35z" fill="#FF4361"/><path d="M56.227 84h-.137a25.106 25.106 0 01-5.693-.658.948.948 0 01-.706-1.138.934.934 0 011.126-.713 23.46 23.46 0 004.488.586V80.2a.939.939 0 111.879 0v1.87a23.112 23.112 0 009.825-2.7l-.926-1.622a.955.955 0 01.692-1.42.931.931 0 01.935.467l.923 1.618a23.808 23.808 0 007.3-7.384l-1.6-.934a.956.956 0 01.225-1.742.935.935 0 01.714.095l1.6.937a23.777 23.777 0 002.677-10.089H77.7a.95.95 0 010-1.9h1.856a23.768 23.768 0 00-2.677-10.087l-1.6.936a.924.924 0 01-.94 0 .955.955 0 010-1.647l1.599-.933a23.81 23.81 0 00-7.3-7.385l-.923 1.618a.934.934 0 01-1.284.348.956.956 0 01-.345-1.3l.927-1.622a23.109 23.109 0 00-9.825-2.7v1.871a.94.94 0 01-1.88 0v-1.877a31.5 31.5 0 00-.868.054l-1.009.078a23.85 23.85 0 00-2.612.454.938.938 0 01-1.126-.714.948.948 0 01.706-1.138c.998-.23 2.01-.4 3.029-.509v-1.1h-1.409a2.375 2.375 0 010-4.749h8.457a2.375 2.375 0 010 4.75h-1.409v1.131a25 25 0 019.653 3.234c.02.011.041.01.06.021.019.012.029.03.047.042a25.469 25.469 0 014.519 3.388l2.019-2.039-1.329-1.345 3.987-4.03 3.986 4.03-3.986 4.03-1.329-1.343-2.018 2.04a25.79 25.79 0 013.35 4.568c.013.017.03.03.041.047.011.018.01.041.02.061a25.8 25.8 0 010 25.53c-.01.02-.009.04-.02.06-.011.018-.039.048-.057.074a25.7 25.7 0 01-9.184 9.273c-.018.012-.028.03-.047.041a.855.855 0 01-.088.038 25 25 0 01-12.422 3.394h-.023c-.009 0-.013.011-.019.011zm20.461-47.814l1.33 1.345 1.328-1.345-1.328-1.344-1.33 1.344zm-19.5-3.46v-2.87h3.289a.475.475 0 000-.95H52.02a.475.475 0 100 .95h3.28v2.87c.113-.006.216 0 .325-.008.154 0 .308-.013.462-.013h.153c.304-.005.616.001.943.015l.005.005zM41.213 75.453a.95.95 0 110-1.9h6.577a.95.95 0 010 1.9h-6.577zm-5.638-6.65a.95.95 0 010-1.9h12.216a.95.95 0 110 1.9H35.575zm18.835-6.692a3.408 3.408 0 01.4-5.13l12.165-8.9a.935.935 0 011.215.1.958.958 0 01.1 1.227l-8.8 12.3a3.334 3.334 0 01-4 1.137 3.324 3.324 0 01-1.085-.739l.005.005zm1.5-3.595a1.485 1.485 0 00.979 2.682 1.466 1.466 0 001.075-.608l5.367-7.5-7.421 5.426zm-25.976 3.636a.95.95 0 010-1.9h17.854a.95.95 0 110 1.9H29.934zm3.759-6.649a.95.95 0 010-1.9h14.095a.95.95 0 010 1.9H33.693zm4.7-6.65a.95.95 0 110-1.9h9.4a.95.95 0 110 1.9h-9.4zm4.7-6.65a.95.95 0 110-1.9h4.7a.95.95 0 010 1.9h-4.7z" fill="#FF4361"/></svg>