<svg width="57" height="57" fill="none" xmlns="http://www.w3.org/2000/svg"><path opacity=".1" fill-rule="evenodd" clip-rule="evenodd" d="M24.542.792h7.916c13.117 0 23.75 10.633 23.75 23.75v7.916c0 13.117-10.633 23.75-23.75 23.75h-7.916c-13.117 0-23.75-10.633-23.75-23.75v-7.916c0-13.117 10.633-23.75 23.75-23.75z" fill="url(#paint0_linear)"/><path fill-rule="evenodd" clip-rule="evenodd" d="M31.217 32.962a.83.83 0 00.252-.603v-2.144h8.906v6.433c0 .59-.208 1.094-.623 1.514a2.03 2.03 0 01-1.498.63H18.747a2.03 2.03 0 01-1.498-.63 2.076 2.076 0 01-.623-1.514v-6.433h8.906v2.144a.83.83 0 00.252.603.81.81 0 00.596.255h4.242a.81.81 0 00.596-.255zm-1.02-2.747h-3.394v1.715h3.394v-1.715zm9.555-7.948a2.029 2.029 0 00-1.498-.63H33.59v-2.144a1.25 1.25 0 00-.37-.912 1.222 1.222 0 00-.902-.375h-7.634c-.353 0-.654.126-.901.375a1.25 1.25 0 00-.371.912v2.144h-4.665a2.03 2.03 0 00-1.498.63c-.416.42-.623.924-.623 1.514v5.147h23.75v-5.147c0-.59-.208-1.094-.623-1.514zm-7.86-.63h-6.785v-1.716h6.786v1.716z" fill="#FF4550"/><defs><linearGradient id="paint0_linear" x1="32.785" y1="89.785" x2="89.785" y2="24.215" gradientUnits="userSpaceOnUse"><stop stop-color="#FF416C"/><stop offset="1" stop-color="#FF4B2B"/></linearGradient></defs></svg>